<svg width="32" height="31" viewBox="0 0 32 31" fill="none" xmlns="http://www.w3.org/2000/svg">
<rect width="32" height="31" fill="white"/>
<g id="Set up Account Details">
<g clip-path="url(#clip0_22_400)">
<rect x="-146" y="-359" width="320" height="568" fill="white"/>
<g id="Birthday">
<rect id="Rectangle 26" x="-124.5" y="0.5" width="156.033" height="29.4555" rx="4.5" fill="white" stroke="#BBA58F"/>
<path id="Button" d="M0.854248 5C0.854248 2.23858 3.09282 0 5.85425 0H26.3143C29.0757 0 31.3142 2.23858 31.3142 5V25.4555C31.3142 28.217 29.0757 30.4555 26.3142 30.4555H5.85424C3.09282 30.4555 0.854248 28.217 0.854248 25.4555V5Z" fill="#BBA58F"/>
<g id="Calendar">
<path id="Calendar_2" fill-rule="evenodd" clip-rule="evenodd" d="M20.6853 7.0282C20.8589 7.0282 20.9998 7.17027 20.9998 7.34532V8.53772H22.6809C23.4047 8.53772 23.9934 9.13138 23.9934 9.8614V20.9323C23.9934 21.6617 23.4047 22.256 22.6809 22.256H10.2059C9.4827 22.256 8.89404 21.6617 8.89404 20.9323V9.8614C8.89404 9.13138 9.4827 8.53772 10.2059 8.53772H12.387V7.34532C12.387 7.17027 12.5272 7.0282 12.7014 7.0282C12.875 7.0282 13.0159 7.17027 13.0159 7.34532V8.53772H20.3709V7.34532C20.3709 7.17027 20.5111 7.0282 20.6853 7.0282ZM23.3645 12.6946H9.52295V20.9323C9.52295 21.3122 9.82922 21.6217 10.2059 21.6217H22.6809C23.0582 21.6217 23.3645 21.3122 23.3645 20.9323V12.6946ZM15.1963 14.5764C15.9201 14.5764 16.5088 15.17 16.5088 15.9001C16.5088 16.3028 16.3296 16.6637 16.0478 16.9066C16.3296 17.1495 16.5088 17.5104 16.5088 17.9132C16.5088 18.6426 15.9201 19.2369 15.1963 19.2369H14.1982C14.0246 19.2369 13.8838 19.0948 13.8838 18.9197C13.8838 18.7447 14.0246 18.6026 14.1982 18.6026H15.1963C15.573 18.6026 15.8799 18.2937 15.8799 17.9132C15.8799 17.5326 15.573 17.2237 15.1963 17.2237H14.6976C14.5234 17.2237 14.3831 17.0823 14.3831 16.9066C14.3831 16.7316 14.5234 16.5895 14.6976 16.5895H15.1963C15.573 16.5895 15.8799 16.2806 15.8799 15.9001C15.8799 15.5201 15.573 15.2106 15.1963 15.2106H14.1982C14.0246 15.2106 13.8838 15.0692 13.8838 14.8935C13.8838 14.7184 14.0246 14.5764 14.1982 14.5764H15.1963ZM18.6892 14.5764C18.8628 14.5764 19.0037 14.7184 19.0037 14.8935V18.9197C19.0037 19.0948 18.8628 19.2369 18.6892 19.2369C18.515 19.2369 18.3748 19.0948 18.3748 18.9197V14.8935C18.3748 14.7184 18.515 14.5764 18.6892 14.5764ZM12.387 9.17197H10.2059C9.82922 9.17197 9.52295 9.48149 9.52295 9.8614V12.0604H23.3645V9.8614C23.3645 9.48149 23.0582 9.17197 22.6809 9.17197H20.9998V10.365C20.9998 10.5401 20.8589 10.6821 20.6853 10.6821C20.5111 10.6821 20.3709 10.5401 20.3709 10.365V9.17197H13.0159V10.365C13.0159 10.5401 12.875 10.6821 12.7014 10.6821C12.5272 10.6821 12.387 10.5401 12.387 10.365V9.17197Z" fill="white"/>
</g>
</g>
</g>
<rect x="-145.5" y="-358.5" width="319" height="567" stroke="#3C403D"/>
</g>
<defs>
<clipPath id="clip0_22_400">
<rect x="-146" y="-359" width="320" height="568" fill="white"/>
</clipPath>
</defs>
</svg>
