<svg width="24" height="24" viewBox="0 0 24 24" fill="none" xmlns="http://www.w3.org/2000/svg">
<path fill-rule="evenodd" clip-rule="evenodd" d="M2.62503 12.011C2.84303 11.822 3.16303 11.84 3.35103 12.055L3.54118 12.2714L3.63503 12.37L12 20.751L20.365 12.369L20.503 12.2231L20.714 11.981L21.518 12.641L21.434 12.737C21.354 12.8303 21.2834 12.9112 21.2117 12.9886L21.102 13.103L12.368 21.852C12.27 21.951 12.139 22.005 12 22.005C11.8888 22.005 11.7834 21.9704 11.6955 21.9064L11.633 21.853L2.90003 13.103C2.78803 12.992 2.69203 12.883 2.59003 12.764C2.38803 12.531 2.40903 12.199 2.62503 12.011ZM12.7097 7.5438C12.8803 7.51894 13.0479 7.57416 13.1641 7.69561L13.2177 7.7618L15.2647 10.7048H23.4807C23.7667 10.7048 24.0007 10.9378 24.0007 11.2248C24.0007 11.479 23.8158 11.6914 23.5739 11.7354L23.4807 11.7438H14.9937C14.8577 11.7438 14.7288 11.6907 14.633 11.5977L14.5677 11.5208L12.9797 9.2388L10.9147 16.1248C10.8557 16.3208 10.6857 16.4648 10.4827 16.4898C10.4647 16.4928 10.4397 16.4948 10.4167 16.4948C10.2676 16.4948 10.1246 16.4288 10.0268 16.3183L9.97373 16.2468L7.21973 11.7438H0.519732C0.232732 11.7438 0.000732422 11.5108 0.000732422 11.2248C0.000732422 10.9697 0.184041 10.7572 0.426346 10.7132L0.519732 10.7048H7.51073C7.6624 10.7048 7.80226 10.7694 7.9008 10.8806L7.95473 10.9528L10.2527 14.7118L12.2947 7.9078C12.3517 7.7188 12.5147 7.5758 12.7097 7.5438ZM16.4893 1.995C20.0813 2.004 23.0033 4.926 23.0033 8.508C23.0033 9.045 22.9303 9.597 22.7883 10.151C22.7173 10.424 22.4293 10.594 22.1553 10.524C21.8793 10.452 21.7113 10.169 21.7823 9.891C21.9023 9.424 21.9643 8.95799 21.9643 8.508C21.9643 5.497 19.5083 3.042 16.4883 3.034C14.9203 3.034 13.4273 3.712 12.3913 4.892C12.1943 5.117 11.8083 5.117 11.6113 4.895C10.5643 3.713 9.07033 3.034 7.51133 3.034C4.49933 3.034 2.04433 5.49099 2.03733 8.50999C2.03733 8.95899 2.09733 9.424 2.21833 9.891C2.25333 10.026 2.23333 10.166 2.16233 10.285C2.09233 10.405 1.97933 10.49 1.84533 10.524C1.80233 10.535 1.75833 10.541 1.71433 10.541C1.62433 10.541 1.53533 10.517 1.45433 10.47C1.33333 10.399 1.24633 10.286 1.21133 10.15C1.06933 9.59799 0.997332 9.046 0.997332 8.508C1.00633 4.917 3.92833 1.995 7.51133 1.995C9.18733 1.995 10.7763 2.636 11.9983 3.801C13.2133 2.636 14.8033 1.995 16.4893 1.995Z" fill="#3C403D"/>
</svg>
