<svg width="24" height="24" viewBox="0 0 24 24" fill="none" xmlns="http://www.w3.org/2000/svg">
<path fill-rule="evenodd" clip-rule="evenodd" d="M17.0007 11.5V8.5C17.0007 6.019 14.9817 4 12.5007 4H4.50073C2.01973 4 0.000732422 6.019 0.000732422 8.5V11.5C0.000732422 13.981 2.01973 16 4.50073 16H5.00073V18.5C5.00073 18.702 5.12273 18.885 5.30973 18.962C5.37073 18.988 5.43673 19 5.50073 19C5.63073 19 5.75873 18.949 5.85373 18.854L8.70773 16H12.5007C14.9817 16 17.0007 13.981 17.0007 11.5ZM8.50073 15C8.36773 15 8.24073 15.053 8.14673 15.147L6.00073 17.293V15.5C6.00073 15.224 5.77673 15 5.50073 15H4.50073C2.57073 15 1.00073 13.43 1.00073 11.5V8.5C1.00073 6.57 2.57073 5 4.50073 5H12.5007C14.4307 5 16.0007 6.57 16.0007 8.5V11.5C16.0007 13.43 14.4307 15 12.5007 15H8.50073ZM19.5007 7H18.5497C18.2737 7 18.0497 7.224 18.0497 7.5C18.0497 7.776 18.2737 8 18.5497 8H19.5007C21.4307 8 23.0007 9.57 23.0007 11.5V14.5C23.0007 16.43 21.4307 18 19.5007 18H18.5007C18.2247 18 18.0007 18.224 18.0007 18.5V20.293L15.8547 18.146C15.7607 18.053 15.6337 18 15.5007 18H11.5007C10.7827 18 10.0897 17.777 9.49473 17.355C9.27173 17.196 8.95873 17.248 8.79773 17.473C8.63873 17.698 8.69073 18.01 8.91673 18.17C9.68173 18.713 10.5747 19 11.5007 19H15.2937L18.1467 21.854C18.2427 21.949 18.3707 22 18.5007 22C18.5647 22 18.6307 21.988 18.6917 21.962C18.8787 21.885 19.0007 21.702 19.0007 21.5V19H19.5007C21.9817 19 24.0007 16.981 24.0007 14.5V11.5C24.0007 9.019 21.9817 7 19.5007 7ZM10.7507 8H6.25073C5.00873 8 4.00073 8.224 4.00073 8.5C4.00073 8.776 5.00873 9 6.25073 9H10.7507C11.9927 9 13.0007 8.776 13.0007 8.5C13.0007 8.224 11.9927 8 10.7507 8ZM10.7507 10H6.25073C5.00873 10 4.00073 10.224 4.00073 10.5C4.00073 10.776 5.00873 11 6.25073 11H10.7507C11.9927 11 13.0007 10.776 13.0007 10.5C13.0007 10.224 11.9927 10 10.7507 10ZM7.00073 12H5.00073C4.44873 12 4.00073 12.224 4.00073 12.5C4.00073 12.776 4.44873 13 5.00073 13H7.00073C7.55273 13 8.00073 12.776 8.00073 12.5C8.00073 12.224 7.55273 12 7.00073 12Z" fill="#3C403D"/>
</svg>
