<svg width="31" height="31" viewBox="0 0 31 31" fill="none" xmlns="http://www.w3.org/2000/svg">
<path d="M0.5 5C0.5 2.51472 2.51472 0.5 5 0.5H25.46C27.9453 0.5 29.96 2.51472 29.96 5V25.46C29.96 27.9453 27.9453 29.96 25.46 29.96H5C2.51472 29.96 0.5 27.9453 0.5 25.46V5Z" fill="#BBA58F" stroke="#BBA58F"/>
<rect width="22.563" height="22.563" transform="translate(4.51257 3.38443)" fill="#BBA58F"/>
<path fill-rule="evenodd" clip-rule="evenodd" d="M13.9348 4.32455L14.1727 4.32745C18.8669 4.44983 22.5727 8.34947 22.4512 13.0394C22.4056 14.8308 21.8081 16.4762 20.8263 17.8216L20.6491 18.0559L25.9173 23.5999C26.1997 23.8974 26.2053 24.3535 25.9489 24.6653L25.8794 24.7401L25.851 24.7668C25.5452 25.0559 25.0795 25.0836 24.7491 24.8585L24.6625 24.7909L18.9454 19.6977C17.4855 20.7577 15.6766 21.3635 13.7341 21.3135C9.03983 21.1912 5.33409 17.2915 5.4556 12.6016C5.57506 7.98947 9.34899 4.33178 13.9348 4.32455V4.32455ZM13.953 6.02692C10.2076 6.02692 7.17059 9.06304 7.17059 12.8093C7.17059 16.5547 10.2076 19.5908 13.953 19.5908C17.6992 19.5908 20.7353 16.5547 20.7353 12.8093C20.7353 9.06304 17.6992 6.02692 13.953 6.02692Z" fill="white"/>
</svg>
