<svg width="24" height="24" viewBox="0 0 24 24" fill="none" xmlns="http://www.w3.org/2000/svg">
<path fill-rule="evenodd" clip-rule="evenodd" d="M1.48573 11.9933L1.98298 12.0277C3.24281 12.1255 5.67878 12.3931 6.35673 13.0373C6.45873 13.1343 6.51073 13.2723 6.49773 13.4113L6.46321 13.7381V13.7381L6.43973 13.9103L14.3887 15.6813C15.6703 16.0034 16.3463 16.6261 16.5278 17.6613L16.5547 17.8483L19.5257 17.1043C20.9067 16.7583 22.3147 17.4083 22.9517 18.6853C23.0087 18.7963 23.0147 18.9273 22.9737 19.0453C22.9409 19.1389 22.8787 19.2191 22.7967 19.274L22.7317 19.3103L17.6907 21.6093L16.8519 21.951C15.027 22.687 14.0916 22.9993 13.2787 22.9993C12.7472 22.9993 12.2686 22.8658 11.628 22.6311L11.3797 22.5383L4.81173 20.3433L4.64373 20.8713V20.8713C4.59145 21.0342 4.45467 21.1515 4.29197 21.1817L4.20873 21.1893H1.45873C1.23384 21.1893 1.04688 21.0266 1.00811 20.812L1.00073 20.7293V12.4513C1.00073 12.3253 1.05273 12.2033 1.14373 12.1173C1.23573 12.0313 1.35773 11.9853 1.48573 11.9933ZM6.28473 14.8173C6.03846 16.0765 5.64224 17.5472 5.29981 18.7262L5.08173 19.4633L11.6867 21.6723L12.1638 21.8504C13.3338 22.2673 13.8186 22.1936 16.7472 21.0012L17.3257 20.7643L21.8697 18.6923C21.3984 18.1174 20.6588 17.836 19.9086 17.9621L19.7477 17.9953L15.0017 19.1853C14.7487 19.2493 14.4847 19.2823 14.2217 19.2823C14.0817 19.2823 13.9413 19.273 13.8022 19.2546L13.5947 19.2203L9.61773 18.4213C9.36873 18.3713 9.20873 18.1303 9.25873 17.8803C9.3014 17.659 9.49735 17.5064 9.71525 17.5104L9.79773 17.5193L13.7727 18.3183C14.0375 18.3719 14.3132 18.3763 14.5798 18.3334L14.7777 18.2923L15.6577 18.0733C15.6052 17.2858 15.2425 16.8833 14.3618 16.6268L14.1787 16.5773L6.28473 14.8173ZM1.91573 12.9453V20.2693H3.87373L4.22792 19.1162C4.69295 17.562 5.37205 15.128 5.55673 13.5973C5.04673 13.3494 3.74884 13.1217 2.43863 12.9919L1.91573 12.9453ZM15.3852 1.69675C16.0462 1.13575 16.9112 0.895746 17.7712 1.04175C19.1832 1.28175 20.2482 2.65075 20.2482 4.22675C20.2482 5.05816 19.9903 5.77782 19.5159 6.33951L19.3812 6.48875L15.0792 10.9757C14.9932 11.0637 14.8732 11.1157 14.7492 11.1157C14.6555 11.1157 14.5651 11.0865 14.4895 11.0347L14.4192 10.9757L10.1172 6.48875C9.55723 5.90775 9.24923 5.13375 9.24923 4.31275C9.24923 2.65075 10.3162 1.28175 11.7292 1.04175C12.5882 0.897746 13.4542 1.13575 14.1152 1.69675C14.3672 1.91075 14.5802 2.16175 14.7502 2.44075C14.9192 2.16175 15.1322 1.91175 15.3852 1.69675ZM12.2302 1.91875C12.1152 1.91875 11.9982 1.92875 11.8822 1.94875C10.9042 2.11375 10.1662 3.09375 10.1662 4.22675C10.1662 4.81341 10.3424 5.32107 10.6541 5.71108L10.7772 5.85175L14.7492 9.99275L18.7222 5.85075C19.1102 5.44675 19.3322 4.88675 19.3322 4.31275C19.3322 3.09475 18.5942 2.11375 17.6172 1.94975C17.0182 1.84975 16.4382 2.00775 15.9762 2.39875C15.4872 2.81275 15.2072 3.42875 15.2072 4.08775C15.2072 4.34175 15.0022 4.54775 14.7492 4.54775C14.4962 4.54775 14.2902 4.34175 14.2902 4.08775C14.2902 3.42875 14.0102 2.81275 13.5232 2.39875C13.1512 2.08475 12.7012 1.91875 12.2302 1.91875Z" fill="#3C403D"/>
</svg>
