<svg width="24" height="23" viewBox="0 0 24 23" fill="none" xmlns="http://www.w3.org/2000/svg">
<path fill-rule="evenodd" clip-rule="evenodd" d="M18.6817 0.100586C19.8237 0.100586 20.7537 0.991836 20.7537 2.08625V21.4829C20.7537 22.0589 20.4097 22.5572 19.8567 22.7834C19.6637 22.862 19.4657 22.8993 19.2707 22.8993C18.9027 22.8993 18.5457 22.7642 18.2647 22.5064L12.7407 17.4685C12.3257 17.0851 11.6777 17.087 11.2627 17.4665L5.73574 22.5083C5.30074 22.9032 4.68874 23.0067 4.13974 22.7824C3.58974 22.5553 3.24774 22.057 3.24774 21.4829V2.08625C3.24774 0.991836 4.17674 0.100586 5.31974 0.100586H18.6817ZM18.6817 1.05892H5.31974C4.72874 1.05892 4.24774 1.51988 4.24774 2.08625V21.4829C4.24774 21.7618 4.46674 21.8739 4.53474 21.9017L4.60166 21.9236C4.704 21.9497 4.88263 21.9632 5.04674 21.8126L10.5717 16.7737C11.3727 16.0386 12.6287 16.0377 13.4327 16.7756L18.9557 21.8135C19.1637 22.0052 19.3987 21.9285 19.4637 21.9017L19.5377 21.8638C19.6289 21.8074 19.7537 21.6921 19.7537 21.4829V2.08625C19.7537 1.51988 19.2727 1.05892 18.6817 1.05892ZM12.0008 2.48885C12.1948 2.48885 12.3708 2.59522 12.4538 2.76389L13.9978 5.91489L17.4438 6.41897C17.6298 6.44581 17.7828 6.56943 17.8428 6.74002C17.9018 6.90964 17.8578 7.09843 17.7278 7.22685L15.2238 9.68976L15.8188 13.1714C15.8508 13.3535 15.7708 13.5346 15.6138 13.641C15.5278 13.6985 15.4278 13.7292 15.3258 13.7292C15.2428 13.7292 15.1598 13.709 15.0848 13.6688L12.0008 12.0415L8.92584 13.6688C8.75784 13.7579 8.55184 13.7483 8.39584 13.641C8.23884 13.5346 8.15984 13.3535 8.18984 13.1714L8.78684 9.68976L6.28284 7.22685C6.15184 7.09843 6.10684 6.90964 6.16684 6.74002C6.22584 6.56943 6.37984 6.44581 6.56484 6.41897L10.0108 5.91489L11.5478 2.76485C11.6181 2.62028 11.7582 2.52077 11.919 2.49529L12.0008 2.48885ZM12.0018 4.09693L10.8038 6.55314C10.7328 6.69785 10.5908 6.79943 10.4258 6.82339L7.67684 7.22493L9.67884 9.19431C9.78984 9.3026 9.83984 9.45593 9.81384 9.60639L9.34384 12.353L11.7588 11.0746C11.8338 11.0353 11.9178 11.0151 12.0008 11.0151C12.0838 11.0151 12.1668 11.0353 12.2418 11.0746L14.6658 12.3539L14.1958 9.60639C14.1698 9.45593 14.2208 9.3026 14.3308 9.19431L16.3318 7.22493L13.5838 6.82339C13.4188 6.79943 13.2768 6.69785 13.2068 6.55314L12.0018 4.09693Z" fill="#3C403D"/>
</svg>
