<svg width="31" height="32" viewBox="0 0 31 32" fill="none" xmlns="http://www.w3.org/2000/svg">
<rect width="31" height="32" fill="white"/>
<g id="Create New Password / Forgot password reset - password validation error">
<g clip-path="url(#clip0_22_400)">
<rect x="-272" y="-295" width="320" height="568" fill="white"/>
<g id="Create password">
<rect id="Rectangle 24" x="-249.5" y="1.5" width="279.848" height="29.4555" rx="4.5" fill="white" stroke="#BBA58F"/>
<path id="Button" d="M0 5.68763C0 2.9262 2.23858 0.687622 5 0.687622H25.46C28.2214 0.687622 30.46 2.9262 30.46 5.68762V26.1432C30.46 28.9046 28.2214 31.1432 25.46 31.1432H5C2.23857 31.1432 0 28.9046 0 26.1432V5.68763Z" fill="#BBA58F"/>
<g id="Visible">
<path id="Visible_2" fill-rule="evenodd" clip-rule="evenodd" d="M15.4999 10.5417C20.5858 10.5417 23.803 15.104 23.9369 15.2988C24.0283 15.4306 24.0191 15.607 23.9164 15.7288L23.6936 15.9801C22.7904 16.9679 19.3281 20.4583 15.4999 20.4583C11.1359 20.4583 7.24715 15.9222 7.08353 15.7288C6.98622 15.6129 6.97406 15.4503 7.04704 15.3233L7.08353 15.2712C7.24715 15.0778 11.1359 10.5417 15.4999 10.5417ZM15.4999 11.25C11.9965 11.25 8.67374 14.5855 7.83011 15.5L8.09836 15.7824C9.24258 16.9575 12.2992 19.75 15.4999 19.75C19.0282 19.75 22.3736 16.3656 23.1882 15.4809L23.0306 15.2851C22.1168 14.1779 19.3376 11.25 15.4999 11.25ZM15.4999 12.6667C17.0625 12.6667 18.3333 13.9374 18.3333 15.5C18.3333 17.0626 17.0625 18.3333 15.4999 18.3333C13.9374 18.3333 12.6666 17.0626 12.6666 15.5C12.6666 13.9374 13.9374 12.6667 15.4999 12.6667ZM15.4999 13.375C14.3284 13.375 13.3749 14.3284 13.3749 15.5C13.3749 16.6716 14.3284 17.625 15.4999 17.625C16.6715 17.625 17.6249 16.6716 17.6249 15.5C17.6249 14.3284 16.6715 13.375 15.4999 13.375Z" fill="white"/>
</g>
</g>
</g>
<rect x="-271.5" y="-294.5" width="319" height="567" stroke="#3C403D"/>
</g>
<defs>
<clipPath id="clip0_22_400">
<rect x="-272" y="-295" width="320" height="568" fill="white"/>
</clipPath>
</defs>
</svg>
