<svg width="22" height="19" viewBox="0 0 22 19" fill="none" xmlns="http://www.w3.org/2000/svg">
<path fill-rule="evenodd" clip-rule="evenodd" d="M8.21086 15.0433H13.7906V10.2244H8.21086V15.0433ZM18.621 0C18.8703 0 19.053 0.133235 19.0905 0.333538L19.0977 0.411667V6.51304L21.9155 8.892C21.9837 9.00917 21.9973 9.12583 22.0001 9.23306L22.0007 9.31158L21.9879 9.35513C21.914 9.48338 21.7728 9.57033 21.6082 9.59256L21.5241 9.59817H19.0977V18.5891C19.0977 18.8038 18.9427 18.9615 18.7112 18.9939L18.621 19H3.37957C3.13023 19 2.94826 18.8661 2.9109 18.6668L2.90382 18.5891V9.59817H0.476482C0.305197 9.59817 0.150074 9.52953 0.0549868 9.4157L0.0126491 9.35513L0.000732422 9.31158C0.000732422 9.20962 0.000732422 9.096 0.0439111 8.97964L0.0850658 8.892L0.106149 8.86667L9.83107 0.405333C10.4195 -0.102824 11.3538 -0.132715 11.9828 0.314999L12.0971 0.404542L14.5152 2.49375V0.411667C14.5152 0.19563 14.6702 0.0383909 14.9023 0.00611614L14.9928 0H18.621ZM18.1443 0.822542H15.4686V3.48254C15.4686 3.64133 15.3756 3.77045 15.2105 3.84847L15.1221 3.88313C14.9993 3.95794 14.784 3.90547 14.6657 3.83443L14.6216 3.80317L11.427 0.981667C11.3426 0.885875 11.2198 0.833625 11.0713 0.824125C10.9254 0.818425 10.7753 0.852752 10.6559 0.923052L10.5726 0.982458L1.61957 8.77563H3.37957C3.6289 8.77563 3.8116 8.90886 3.84912 9.10861L3.85623 9.1865V18.1775H18.1443V9.1865C18.1443 8.97117 18.2993 8.81401 18.5308 8.78174L18.621 8.77563H18.7346V8.83817H20.3791L18.2176 6.97062V6.93025L18.212 6.9053L18.1865 6.83604C18.1724 6.79857 18.1584 6.76251 18.1506 6.72855L18.1443 6.67929V0.822542ZM14.2664 9.40183C14.5157 9.40183 14.6977 9.53569 14.735 9.73558L14.7421 9.8135V15.4541C14.7421 15.6702 14.5878 15.8274 14.3565 15.8597L14.2664 15.8658H7.73419C7.48486 15.8658 7.30216 15.7326 7.26464 15.5323L7.25752 15.4541V9.8135C7.25752 9.59817 7.41252 9.44038 7.64397 9.40798L7.73419 9.40183H14.2664Z" fill="#3C403D"/>
</svg>
